<mxfile host="app.diagrams.net" agent="Mozilla/5.0 (Windows NT 10.0; Win64; x64) AppleWebKit/537.36 (KHTML, like Gecko) Chrome/135.0.0.0 Safari/537.36" version="26.2.13">
  <diagram name="Page-1" id="EwyHL5FWJoVqH5KZ_16F">
    <mxGraphModel dx="920" dy="498" grid="1" gridSize="10" guides="1" tooltips="1" connect="1" arrows="1" fold="1" page="1" pageScale="1" pageWidth="1100" pageHeight="850" math="0" shadow="0">
      <root>
        <mxCell id="0" />
        <mxCell id="1" parent="0" />
        <mxCell id="1MdOgEayCNlITZ1GY-LB-6" style="edgeStyle=orthogonalEdgeStyle;rounded=0;orthogonalLoop=1;jettySize=auto;html=1;entryX=0.5;entryY=0;entryDx=0;entryDy=0;" edge="1" parent="1" source="1MdOgEayCNlITZ1GY-LB-1" target="1MdOgEayCNlITZ1GY-LB-2">
          <mxGeometry relative="1" as="geometry" />
        </mxCell>
        <mxCell id="1MdOgEayCNlITZ1GY-LB-15" value="Timer (5s) + Probabilité" style="edgeLabel;html=1;align=center;verticalAlign=middle;resizable=0;points=[];" vertex="1" connectable="0" parent="1MdOgEayCNlITZ1GY-LB-6">
          <mxGeometry x="-0.1368" y="5" relative="1" as="geometry">
            <mxPoint as="offset" />
          </mxGeometry>
        </mxCell>
        <mxCell id="1MdOgEayCNlITZ1GY-LB-1" value="Inactif" style="rounded=1;whiteSpace=wrap;html=1;" vertex="1" parent="1">
          <mxGeometry x="330" y="70" width="90" height="40" as="geometry" />
        </mxCell>
        <mxCell id="1MdOgEayCNlITZ1GY-LB-7" style="edgeStyle=orthogonalEdgeStyle;rounded=0;orthogonalLoop=1;jettySize=auto;html=1;entryX=0.5;entryY=0;entryDx=0;entryDy=0;" edge="1" parent="1" source="1MdOgEayCNlITZ1GY-LB-2" target="1MdOgEayCNlITZ1GY-LB-3">
          <mxGeometry relative="1" as="geometry" />
        </mxCell>
        <mxCell id="1MdOgEayCNlITZ1GY-LB-16" value="Initialisation de position" style="edgeLabel;html=1;align=center;verticalAlign=middle;resizable=0;points=[];" vertex="1" connectable="0" parent="1MdOgEayCNlITZ1GY-LB-7">
          <mxGeometry x="-0.5053" y="2" relative="1" as="geometry">
            <mxPoint y="6" as="offset" />
          </mxGeometry>
        </mxCell>
        <mxCell id="1MdOgEayCNlITZ1GY-LB-2" value="Spawné" style="rounded=1;whiteSpace=wrap;html=1;" vertex="1" parent="1">
          <mxGeometry x="330" y="150" width="90" height="40" as="geometry" />
        </mxCell>
        <mxCell id="1MdOgEayCNlITZ1GY-LB-8" style="edgeStyle=orthogonalEdgeStyle;rounded=0;orthogonalLoop=1;jettySize=auto;html=1;entryX=0.5;entryY=0;entryDx=0;entryDy=0;" edge="1" parent="1" source="1MdOgEayCNlITZ1GY-LB-3" target="1MdOgEayCNlITZ1GY-LB-5">
          <mxGeometry relative="1" as="geometry" />
        </mxCell>
        <mxCell id="1MdOgEayCNlITZ1GY-LB-18" value="Fuite / Timeout" style="edgeLabel;html=1;align=center;verticalAlign=middle;resizable=0;points=[];" vertex="1" connectable="0" parent="1MdOgEayCNlITZ1GY-LB-8">
          <mxGeometry x="-0.0057" y="4" relative="1" as="geometry">
            <mxPoint x="-29" as="offset" />
          </mxGeometry>
        </mxCell>
        <mxCell id="1MdOgEayCNlITZ1GY-LB-9" style="edgeStyle=orthogonalEdgeStyle;rounded=0;orthogonalLoop=1;jettySize=auto;html=1;" edge="1" parent="1" source="1MdOgEayCNlITZ1GY-LB-3" target="1MdOgEayCNlITZ1GY-LB-4">
          <mxGeometry relative="1" as="geometry" />
        </mxCell>
        <mxCell id="1MdOgEayCNlITZ1GY-LB-17" value="Collision avec la roue" style="edgeLabel;html=1;align=center;verticalAlign=middle;resizable=0;points=[];" vertex="1" connectable="0" parent="1MdOgEayCNlITZ1GY-LB-9">
          <mxGeometry x="0.3053" y="1" relative="1" as="geometry">
            <mxPoint x="42" y="-8" as="offset" />
          </mxGeometry>
        </mxCell>
        <mxCell id="1MdOgEayCNlITZ1GY-LB-3" value="Navigation" style="rounded=1;whiteSpace=wrap;html=1;" vertex="1" parent="1">
          <mxGeometry x="330" y="230" width="90" height="40" as="geometry" />
        </mxCell>
        <mxCell id="1MdOgEayCNlITZ1GY-LB-10" style="edgeStyle=orthogonalEdgeStyle;rounded=0;orthogonalLoop=1;jettySize=auto;html=1;" edge="1" parent="1" source="1MdOgEayCNlITZ1GY-LB-4" target="1MdOgEayCNlITZ1GY-LB-5">
          <mxGeometry relative="1" as="geometry" />
        </mxCell>
        <mxCell id="1MdOgEayCNlITZ1GY-LB-19" value="Animation finie" style="edgeLabel;html=1;align=center;verticalAlign=middle;resizable=0;points=[];" vertex="1" connectable="0" parent="1MdOgEayCNlITZ1GY-LB-10">
          <mxGeometry x="-0.7148" y="1" relative="1" as="geometry">
            <mxPoint x="14" y="14" as="offset" />
          </mxGeometry>
        </mxCell>
        <mxCell id="1MdOgEayCNlITZ1GY-LB-4" value="Écrasé" style="rounded=1;whiteSpace=wrap;html=1;" vertex="1" parent="1">
          <mxGeometry x="400" y="320" width="90" height="40" as="geometry" />
        </mxCell>
        <mxCell id="1MdOgEayCNlITZ1GY-LB-14" style="edgeStyle=orthogonalEdgeStyle;rounded=0;orthogonalLoop=1;jettySize=auto;html=1;entryX=0.5;entryY=0;entryDx=0;entryDy=0;" edge="1" parent="1" source="1MdOgEayCNlITZ1GY-LB-5" target="1MdOgEayCNlITZ1GY-LB-12">
          <mxGeometry relative="1" as="geometry" />
        </mxCell>
        <mxCell id="1MdOgEayCNlITZ1GY-LB-20" value="Suppression / Retour au pool" style="edgeLabel;html=1;align=center;verticalAlign=middle;resizable=0;points=[];" vertex="1" connectable="0" parent="1MdOgEayCNlITZ1GY-LB-14">
          <mxGeometry x="-0.3737" y="2" relative="1" as="geometry">
            <mxPoint as="offset" />
          </mxGeometry>
        </mxCell>
        <mxCell id="1MdOgEayCNlITZ1GY-LB-5" value="Détruit" style="rounded=1;whiteSpace=wrap;html=1;" vertex="1" parent="1">
          <mxGeometry x="330" y="400" width="90" height="40" as="geometry" />
        </mxCell>
        <mxCell id="1MdOgEayCNlITZ1GY-LB-13" style="edgeStyle=orthogonalEdgeStyle;rounded=0;orthogonalLoop=1;jettySize=auto;html=1;entryX=0.5;entryY=0;entryDx=0;entryDy=0;" edge="1" parent="1" source="1MdOgEayCNlITZ1GY-LB-11" target="1MdOgEayCNlITZ1GY-LB-1">
          <mxGeometry relative="1" as="geometry" />
        </mxCell>
        <mxCell id="1MdOgEayCNlITZ1GY-LB-11" value="" style="ellipse;whiteSpace=wrap;html=1;aspect=fixed;" vertex="1" parent="1">
          <mxGeometry x="365" y="20" width="20" height="20" as="geometry" />
        </mxCell>
        <mxCell id="1MdOgEayCNlITZ1GY-LB-12" value="" style="ellipse;whiteSpace=wrap;html=1;aspect=fixed;fillColor=#000000;" vertex="1" parent="1">
          <mxGeometry x="365" y="480" width="20" height="20" as="geometry" />
        </mxCell>
      </root>
    </mxGraphModel>
  </diagram>
</mxfile>
